HIERARCHY
ROOT Hips
{
	OFFSET -3.958830 18.904000 13.208200
	CHANNELS 6 Xposition Yposition Zposition Zrotation Yrotation Xrotation 
	JOINT LHipJoint
	{
		OFFSET 0.000000 0.000000 0.000000
		CHANNELS 3 Zrotation Yrotation Xrotation
		JOINT LeftUpLeg
		{
			OFFSET 1.800000 -1.400000 0.085000
			CHANNELS 3 Zrotation Yrotation Xrotation
			JOINT LeftLeg
			{
				OFFSET 2.215000 -6.000000 0.000000
				CHANNELS 3 Zrotation Yrotation Xrotation
				JOINT LeftFoot
				{
					OFFSET 2.500000 -6.900000 0.000000
					CHANNELS 3 Zrotation Yrotation Xrotation
					JOINT LeftToeBase
					{
						OFFSET 0.200000 -0.500000 1.950000
						CHANNELS 3 Zrotation Yrotation Xrotation
						End Site
						{
							OFFSET 0.000000 0.000000 0.000000
						}
					}
				}
			}
		}
	}
	JOINT RHipJoint
	{
		OFFSET 0.000000 0.000000 0.000000
		CHANNELS 3 Zrotation Yrotation Xrotation
		JOINT RightUpLeg
		{
			OFFSET -1.800000 -1.400000 0.085000
			CHANNELS 3 Zrotation Yrotation Xrotation
			JOINT RightLeg
			{
				OFFSET -2.215000 -6.000000 0.000000
				CHANNELS 3 Zrotation Yrotation Xrotation
				JOINT RightFoot
				{
					OFFSET -2.500000 -6.900000 0.000000
					CHANNELS 3 Zrotation Yrotation Xrotation
					JOINT RightToeBase
					{
						OFFSET -0.200000 -0.500000 1.950000
						CHANNELS 3 Zrotation Yrotation Xrotation
						End Site
						{
							OFFSET 0.000000 0.000000 0.000000
						}
					}
				}
			}
		}
	}
	JOINT LowerBack
	{
		OFFSET 0.000000 0.000000 0.000000
		CHANNELS 3 Zrotation Yrotation Xrotation
		JOINT Spine
		{
			OFFSET -0.087000 1.940000 -0.288900
			CHANNELS 3 Zrotation Yrotation Xrotation
			JOINT Spine1
			{
				OFFSET 0.000000 1.950000 0.060000
				CHANNELS 3 Zrotation Yrotation Xrotation
				JOINT Neck
				{
					OFFSET 0.000000 0.000000 0.000000
					CHANNELS 3 Zrotation Yrotation Xrotation
					JOINT Neck1
					{
						OFFSET 0.000000 1.600000 0.340000
						CHANNELS 3 Zrotation Yrotation Xrotation
						JOINT Head
						{
							OFFSET 0.000000 1.667000 -0.240000
							CHANNELS 3 Zrotation Yrotation Xrotation
							End Site
							{
								OFFSET 0.000000 0.000000 0.000000
							}
						}
					}
				}
				JOINT LeftShoulder
				{
					OFFSET 0.000000 0.000000 0.000000
					CHANNELS 3 Zrotation Yrotation Xrotation
					JOINT LeftArm
					{
						OFFSET 2.700000 1.550000 -0.730000
						CHANNELS 3 Zrotation Yrotation Xrotation
						JOINT LeftForeArm
						{
							OFFSET 5.450000 0.000000 0.000000
							CHANNELS 3 Zrotation Yrotation Xrotation
							JOINT LeftHand
							{
								OFFSET 3.450000 0.000000 0.000000
								CHANNELS 3 Zrotation Yrotation Xrotation
								JOINT LeftHandIndex1
								{
									OFFSET 0.750000 0.000000 0.000000
									CHANNELS 3 Zrotation Yrotation Xrotation
									End Site
									{
										OFFSET 0.000000 0.000000 0.000000
									}
								}
							}
						}
					}
				}
				JOINT RightShoulder
				{
					OFFSET 0.000000 0.000000 0.000000
					CHANNELS 3 Zrotation Yrotation Xrotation
					JOINT RightArm
					{
						OFFSET -2.700000 1.550000 -0.730000
						CHANNELS 3 Zrotation Yrotation Xrotation
						JOINT RightForeArm
						{
							OFFSET -5.450000 0.000000 0.000000
							CHANNELS 3 Zrotation Yrotation Xrotation
							JOINT RightHand
							{
								OFFSET -3.450000 0.000000 0.000000
								CHANNELS 3 Zrotation Yrotation Xrotation
								JOINT RightHandIndex1
								{
									OFFSET -0.750000 0.000000 0.000000
									CHANNELS 3 Zrotation Yrotation Xrotation
									End Site
									{
										OFFSET 0.000000 0.000000 0.000000
									}
								}
							}
						}
					}
				}
			}
		}
	}
}
MOTION
Frames: 4
Frame Time: 0.016667
0.270920 15.620310 -2.613190 -0.436046 6.687369 2.935220 -15.316453 12.768264 2.775309 5.109505 -4.407587 -17.176276 -9.014795 10.383301 32.994563 -0.950031 7.797781 2.161617 0.589010 -0.316520 0.428550 18.343832 -9.430531 4.079928 -6.674630 8.411520 -42.098914 5.196207 -10.821650 49.676436 -0.805905 -7.740372 2.062430 0.272930 0.778280 0.263310 -3.513510 -2.423875 -7.870488 5.736972 -2.858877 12.662859 -6.863371 -1.663621 -3.296013 2.715567 -1.592097 -1.777776 -2.811446 2.633497 23.671835 -2.495400 -0.020300 -8.786490 -36.786574 -0.333925 -4.215418 -35.390490 -3.201914 -2.744658 -15.674592 -14.319724 -0.718969 -4.192459 2.677252 0.900190 0.521190 -0.532780 0.426820 31.285908 -0.646615 0.844914 46.391585 -5.364998 -8.484815 11.011179 13.129248 -0.717442 1.371154 -1.279675 -0.799830 0.649970 0.187010 -0.628810 
0.281130 15.579630 -2.656120 -0.353826 6.800456 0.945017 -15.312548 12.815092 2.844123 5.018663 -4.715742 -16.534482 -8.840242 10.957926 35.633793 -0.779660 8.140180 2.011872 0.621840 -0.290920 0.503720 18.329647 -9.221574 4.378711 -7.499519 9.079719 -44.021652 5.002817 -12.068595 54.985975 -1.119242 -8.614887 1.789125 0.210730 0.622560 0.230850 -3.491230 -2.734860 -8.338390 5.727471 -3.456259 17.441937 -7.353402 -1.984303 -5.427187 2.795950 -2.172602 -2.571547 -4.410592 2.476560 27.209556 -1.674190 -0.209310 -12.413470 -38.005775 -1.546720 -3.866185 -33.920626 -2.989736 -3.277558 -15.333947 -15.549273 -0.533855 -3.971758 2.641609 1.040170 0.356960 -0.390230 0.407080 32.228342 1.012662 1.763622 45.551773 -6.094761 -9.302566 11.165961 15.423941 -0.365030 1.413186 -1.184730 -0.758740 0.635960 0.132610 -0.648860 
0.293460 15.528110 -2.727710 -0.554008 6.866221 -2.185598 -15.294304 12.784529 2.917942 5.586466 -5.304895 -15.855035 -9.100408 12.123219 39.620531 -0.516994 8.783102 1.731413 0.679450 -0.243520 0.585560 18.354646 -8.868559 4.757487 -8.970449 9.944137 -46.795662 5.120904 -14.392275 62.667184 -1.600294 -9.989688 1.379258 0.139210 0.401320 0.187290 -3.536717 -3.110376 -8.850126 6.228370 -4.587759 24.233757 -8.348591 -2.678423 -8.002894 2.908090 -3.599883 -4.302760 -8.323780 3.160818 33.323029 0.359850 -0.675520 -17.509160 -38.853490 -3.853890 -3.030008 -32.908718 -2.902782 -4.215941 -13.636180 -18.022523 -0.376709 -3.662506 2.643831 1.222830 0.123320 -0.209090 0.383140 32.672939 4.306984 3.603162 45.272769 -7.211197 -10.808082 11.710872 19.735679 0.205883 1.457358 -1.094440 -0.692600 0.597260 0.065910 -0.674030 
0.300830 15.470650 -2.802710 -1.094743 5.957178 -5.548099 -15.276355 12.584858 2.935700 7.078086 -5.830478 -15.317076 -10.097862 13.909031 43.651011 -0.252052 9.653128 1.372258 0.744330 -0.180190 0.672400 18.425944 -8.450384 5.145229 -10.003872 11.388046 -50.014341 4.588957 -16.838630 71.538960 -2.137139 -11.560981 0.938455 0.103640 0.219710 0.175050 -3.631267 -3.243819 -9.221599 6.866257 -5.366031 30.708541 -9.744145 -2.979535 -9.678308 3.318670 -4.267025 -6.225313 -11.315859 4.235482 39.247350 1.918350 -0.658580 -22.147600 -39.925796 -7.050783 -1.946764 -30.601432 -2.846936 -5.407487 -12.591501 -21.831075 -0.064837 -3.406978 2.696526 1.366550 -0.051500 -0.053160 0.352270 32.843147 7.969922 5.716199 44.987553 -8.979848 -12.665818 13.237756 25.213332 0.900108 1.454229 -1.054674 -0.630070 0.562860 0.017940 -0.700910 
